<?xml version="1.0" encoding="iso-8859-1"?>
<!-- Generator: Adobe Illustrator 19.0.0, SVG Export Plug-In . SVG Version: 6.00 Build 0)  -->
<svg version="1.1" id="Capa_1" xmlns="http://www.w3.org/2000/svg" xmlns:xlink="http://www.w3.org/1999/xlink" x="0px" y="0px"
	 viewBox="0 0 384 384" style="enable-background:new 0 0 384 384;" xml:space="preserve">
<g>
	<g>
		<path d="M301.357,135.192c-2.96-4.488-7.984-7.192-13.36-7.192h-72c-8.832,0-16,7.168-16,16v32c0,4.408-3.592,8-8,8s-8-3.592-8-8
			v-32c0-8.832-7.168-16-16-16h-72c-5.376,0-10.4,2.704-13.36,7.192c-2.952,4.496-3.464,10.168-1.344,15.112l96,224
			c2.52,5.88,8.304,9.696,14.704,9.696c6.4,0,12.184-3.816,14.704-9.696l96-224C304.829,145.36,304.317,139.688,301.357,135.192z
			 M191.997,327.384L120.261,160h31.736v16c0,22.056,17.944,40,40,40c22.056,0,40-17.944,40-40v-16h31.736L191.997,327.384z"/>
	</g>
</g>
<g>
	<g>
		<path d="M191.997,0c-57.344,0-104,46.656-104,104c0,16.464,3.928,32.824,11.368,47.312c2.736,5.336,8.232,8.688,14.232,8.688h54.4
			c8.832,0,16-7.168,16-16c0-8.832-7.168-16-16-16h-43.92c-2.712-7.632-4.08-15.664-4.08-24c0-39.696,32.304-72,72-72
			c39.704,0,72,32.304,72,72c0,8.336-1.368,16.376-4.08,24h-43.92c-8.832,0-16,7.168-16,16c0,8.832,7.168,16,16,16h54.4
			c6,0,11.488-3.352,14.232-8.688c7.44-14.48,11.368-30.84,11.368-47.312C295.997,46.656,249.341,0,191.997,0z"/>
	</g>
</g>
<g>
	<g>
		<path d="M215.997,128c-8.832,0-16,7.168-16,16v32c0,4.408-3.592,8-8,8s-8-3.592-8-8v-32c0-8.832-7.168-16-16-16
			c-8.832,0-16,7.168-16,16v32c0,22.056,17.944,40,40,40c22.056,0,40-17.944,40-40v-32C231.997,135.168,224.829,128,215.997,128z"/>
	</g>
</g>
<g>
	<g>
		<path d="M171.997,56c-11.024,0-20,8.976-20,20s8.976,20,20,20s20-8.976,20-20S183.021,56,171.997,56z"/>
	</g>
</g>
<g>
</g>
<g>
</g>
<g>
</g>
<g>
</g>
<g>
</g>
<g>
</g>
<g>
</g>
<g>
</g>
<g>
</g>
<g>
</g>
<g>
</g>
<g>
</g>
<g>
</g>
<g>
</g>
<g>
</g>
</svg>
